<?xml version="1.0" encoding="UTF-8" standalone="no"?>
<svg width="166px" height="25px" viewBox="0 0 166 25" version="1.1" xmlns="http://www.w3.org/2000/svg" xmlns:xlink="http://www.w3.org/1999/xlink">
    <!-- Generator: Sketch 3.6.1 (26313) - http://www.bohemiancoding.com/sketch -->
    <title>Kassa Copy 4</title>
    <desc>Created with Sketch.</desc>
    <defs></defs>
    <g id="Логотипы-проектов" stroke="none" stroke-width="1" fill="none" fill-rule="evenodd">
        <g id="r-logo" transform="translate(-590.000000, -80.000000)" fill="#315EFB">
            <g id="Kassa-Copy-4" transform="translate(590.000000, 80.000000)">
                <g id="Group">
                    <path d="M74.1935484,10.6451613 C74.2741935,9.75806452 75.1612903,8.06451613 77.2580645,8.06451613 C79.5967742,8.06451613 80,9.91935484 80.0806452,10.6451613 L74.1935484,10.6451613 L74.1935484,10.6451613 Z M77.3387097,5.48387097 C73.3870968,5.48387097 70.7258065,8.38709677 70.7258065,12.0967742 C70.7258065,15.8870968 73.3870968,18.7096774 77.4193548,18.7096774 C81.4516129,18.7096774 83.1451613,15.8870968 83.1451613,15.8870968 L80.5645161,14.1935484 C80.5645161,14.1935484 79.6774194,15.9677419 77.4193548,15.9677419 C75.0806452,15.9677419 74.1129032,13.9516129 74.1129032,13.2258065 L83.3870968,13.2258065 C83.3870968,13.2258065 83.4677419,12.6612903 83.4677419,12.5 L83.4677419,12.0967742 C83.4677419,8.30645161 81.2096774,5.48387097 77.3387097,5.48387097 L77.3387097,5.48387097 Z" id="Shape"></path>
                    <path d="M95.8870968,12.0967742 C95.8870968,14.1935484 94.6774194,15.9677419 92.3387097,15.9677419 C90,15.9677419 88.7096774,14.0322581 88.7096774,12.0967742 C88.7096774,10.2419355 90,8.22580645 92.3387097,8.22580645 C94.5967742,8.22580645 95.8870968,9.91935484 95.8870968,12.0967742 M92.7419355,5.48387097 C90.483871,5.48387097 89.1935484,6.69354839 88.7903226,7.17741935 L88.7903226,5.80645161 L85.4032258,5.80645161 L85.4032258,24.4354839 L88.8709677,24.4354839 L88.8709677,17.1774194 C89.2741935,17.5806452 90.6451613,18.7096774 92.7419355,18.7096774 C95.9677419,18.7096774 98.9516129,16.2903226 98.9516129,12.0967742 C99.0322581,7.66129032 95.7258065,5.48387097 92.7419355,5.48387097" id="Shape"></path>
                    <path d="M21.0483871,13.1451613 C21.0483871,14.8387097 20.0806452,16.0483871 18.2258065,16.0483871 C16.4516129,16.0483871 16.2903226,15 16.2903226,14.5967742 C16.2903226,13.6290323 17.0967742,13.0645161 19.1129032,12.8225806 C19.6774194,12.7419355 20.2419355,12.7419355 20.8064516,12.7419355 L21.0483871,12.7419355 L21.0483871,13.1451613 L21.0483871,13.1451613 Z M24.2741935,15.5645161 L24.2741935,11.7741935 L24.2741935,11.0483871 C24.1129032,7.09677419 22.4193548,5.48387097 18.8709677,5.48387097 C16.4516129,5.48387097 14.8387097,6.4516129 14.2741935,6.85483871 L15.2419355,9.43548387 C15.2419355,9.43548387 16.6935484,8.14516129 18.5483871,8.14516129 C21.2096774,8.14516129 20.8870968,10.3225806 20.8870968,10.3225806 C20,10.3225806 12.8225806,9.91935484 12.8225806,14.5967742 C12.8225806,17.1774194 15,18.6290323 17.3387097,18.6290323 C19.4354839,18.6290323 20.6451613,17.5806452 20.9677419,17.1774194 C20.9677419,17.2580645 21.0483871,18.3870968 21.0483871,18.3870968 L24.2741935,18.3870968 C24.4354839,18.3870968 24.2741935,17.3387097 24.2741935,15.5645161 L24.2741935,15.5645161 Z" id="Shape"></path>
                    <path d="M34.5967742,11.1290323 L30.2419355,5.88709677 L30.1612903,5.80645161 L27.1774194,5.80645161 L27.1774194,18.3870968 L30.6451613,18.3870968 L30.6451613,11.0483871 L34.0322581,15.3225806 L34.1129032,15.483871 L35,15.483871 L38.4677419,11.0483871 L38.4677419,18.3870968 L41.9354839,18.3870968 L41.9354839,5.80645161 L38.9516129,5.80645161 L34.5967742,11.1290323 Z" id="Shape"></path>
                    <path d="M109.516129,0.241935484 L100.645161,24.4354839 L104.274194,24.4354839 L113.145161,0.241935484 L109.516129,0.241935484 Z" id="Shape"></path>
                    <path d="M8.87096774,6.12903226 C8.87096774,8.22580645 6.85483871,8.9516129 5.48387097,8.9516129 L3.70967742,8.9516129 L3.70967742,3.22580645 L5.48387097,3.22580645 C6.85483871,3.22580645 8.87096774,4.03225806 8.87096774,6.12903226 M5.80645161,0.241935484 L0.161290323,0.241935484 L0.161290323,18.4677419 L3.79032258,18.4677419 L3.79032258,12.016129 L5.72580645,12.016129 C9.43548387,12.016129 12.5,10.0806452 12.5,6.12903226 C12.5,2.17741935 9.43548387,0.241935484 5.80645161,0.241935484" id="Shape"></path>
                    <path d="M53.9516129,12.4193548 C53.9516129,13.8709677 53.1451613,15.9677419 50.8064516,15.9677419 C48.4677419,15.9677419 47.5,14.1129032 47.5,12.3387097 C47.5,10.5645161 48.4677419,8.9516129 50.8064516,8.9516129 C53.1451613,8.9516129 53.9516129,10.8870968 53.9516129,12.4193548 M51.1290323,5.80645161 C49.4354839,5.80645161 48.2258065,6.61290323 47.9032258,6.85483871 C47.983871,6.4516129 48.3870968,3.06451613 52.9032258,3.06451613 L55.7258065,3.06451613 L56.7741935,0.241935484 L52.983871,0.241935484 C47.983871,0.241935484 44.1129032,2.58064516 44.1129032,10.7258065 C44.1129032,15.1612903 46.0483871,18.7903226 50.7258065,18.7903226 C55.1612903,18.7903226 57.4193548,15.5645161 57.4193548,12.3387097 C57.4193548,7.66129032 53.9516129,5.80645161 51.1290323,5.80645161" id="Shape"></path>
                    <path d="M66.7741935,18.3870968 L70.483871,18.3870968 L65.8870968,5.80645161 L62.2580645,5.80645161 L57.5806452,18.3870968 L61.3709677,18.3870968 L64.0322581,10.3225806 L64.1129032,10.3225806 L66.7741935,18.3870968 Z" id="Shape"></path>
                </g>
                <g id="Group" transform="translate(116.935484, 7.258065)">
                    <path d="M1.85483871,9.91935484 L0,9.91935484 L0,0.161290323 L1.85483871,0.161290323 L1.85483871,3.14516129 L1.85483871,4.03225806 L1.93548387,4.03225806 C2.17741935,3.62903226 2.41935484,3.38709677 2.58064516,3.14516129 L5.08064516,0.161290323 L7.5,0.161290323 L3.5483871,4.75806452 L7.66129032,9.91935484 L5.24193548,9.91935484 L2.66129032,6.61290323 C2.5,6.4516129 2.25806452,6.12903226 2.01612903,5.72580645 L1.93548387,5.72580645 L1.93548387,6.69354839 L1.93548387,9.91935484 L1.85483871,9.91935484 Z" id="Shape"></path>
                    <path d="M13.2258065,0.161290323 L14.4354839,0.161290323 L18.7903226,9.91935484 L16.6935484,9.91935484 L15.8064516,7.82258065 L11.8548387,7.82258065 L10.9677419,9.91935484 L8.87096774,9.91935484 L13.2258065,0.161290323 L13.2258065,0.161290323 Z M15,6.0483871 L14.2741935,4.35483871 C14.1129032,4.11290323 14.0322581,3.70967742 13.8709677,3.30645161 L13.7903226,3.30645161 L13.6290323,3.79032258 C13.5483871,4.03225806 13.4677419,4.27419355 13.3870968,4.35483871 L12.6612903,6.0483871 L15,6.0483871 L15,6.0483871 Z" id="Shape"></path>
                    <path d="M27.2580645,9.51612903 C26.4516129,9.91935484 25.7258065,10.0806452 25,10.0806452 C23.6290323,10.0806452 22.5,9.59677419 21.4516129,8.62903226 C20.483871,7.66129032 20,6.4516129 20,5.08064516 C20,3.62903226 20.483871,2.5 21.4516129,1.53225806 C22.4193548,0.564516129 23.6290323,0.0806451613 25,0.0806451613 C25.7258065,0.0806451613 26.4516129,0.241935484 27.2580645,0.64516129 L27.2580645,2.82258065 C26.4516129,2.17741935 25.7258065,1.93548387 25,1.93548387 C24.1129032,1.93548387 23.3870968,2.25806452 22.8225806,2.90322581 C22.2580645,3.5483871 21.9354839,4.27419355 21.9354839,5.16129032 C21.9354839,6.0483871 22.2580645,6.77419355 22.8225806,7.41935484 C23.3870968,8.06451613 24.1129032,8.38709677 25,8.38709677 C25.7258065,8.38709677 26.4516129,8.06451613 27.2580645,7.5 L27.2580645,9.51612903 L27.2580645,9.51612903 Z" id="Shape"></path>
                    <path d="M36.6129032,9.51612903 C35.8064516,9.91935484 35.0806452,10.0806452 34.3548387,10.0806452 C32.983871,10.0806452 31.8548387,9.59677419 30.8064516,8.62903226 C29.8387097,7.66129032 29.3548387,6.4516129 29.3548387,5.08064516 C29.3548387,3.62903226 29.8387097,2.5 30.8064516,1.53225806 C31.7741935,0.564516129 32.983871,0.0806451613 34.3548387,0.0806451613 C35.0806452,0.0806451613 35.8064516,0.241935484 36.6129032,0.64516129 L36.6129032,2.82258065 C35.8064516,2.17741935 35.0806452,1.93548387 34.3548387,1.93548387 C33.4677419,1.93548387 32.7419355,2.25806452 32.1774194,2.90322581 C31.6129032,3.5483871 31.2903226,4.27419355 31.2903226,5.16129032 C31.2903226,6.0483871 31.6129032,6.77419355 32.1774194,7.41935484 C32.7419355,8.06451613 33.4677419,8.38709677 34.3548387,8.38709677 C35.0806452,8.38709677 35.8064516,8.06451613 36.6129032,7.5 L36.6129032,9.51612903 L36.6129032,9.51612903 Z" id="Shape"></path>
                    <path d="M42.7419355,0.161290323 L43.9516129,0.161290323 L48.3064516,9.91935484 L46.2096774,9.91935484 L45.3225806,7.82258065 L41.3709677,7.82258065 L40.483871,9.91935484 L38.3870968,9.91935484 L42.7419355,0.161290323 L42.7419355,0.161290323 Z M44.516129,6.0483871 L43.7903226,4.35483871 C43.6290323,4.11290323 43.5483871,3.70967742 43.3870968,3.30645161 L43.3064516,3.30645161 L43.1451613,3.79032258 C43.0645161,4.03225806 42.983871,4.27419355 42.9032258,4.35483871 L42.1774194,6.0483871 L44.516129,6.0483871 L44.516129,6.0483871 Z" id="Shape"></path>
                </g>
            </g>
        </g>
    </g>
</svg>