<?xml version="1.0" standalone="no"?>
<!DOCTYPE svg PUBLIC "-//W3C//DTD SVG 20010904//EN"
 "http://www.w3.org/TR/2001/REC-SVG-20010904/DTD/svg10.dtd">
<svg version="1.0" xmlns="http://www.w3.org/2000/svg"
 width="260.000000pt" height="260.000000pt" viewBox="0 0 260.000000 260.000000"
 preserveAspectRatio="xMidYMid meet">
<metadata>
Created by potrace 1.11, written by Peter Selinger 2001-2013
</metadata>
<g transform="translate(0.000000,260.000000) scale(0.100000,-0.100000)"
fill="#000000" stroke="none">
<path d="M0 1300 l0 -1300 1300 0 1300 0 0 1300 0 1300 -1300 0 -1300 0 0
-1300z m597 958 c4 -7 34 -85 65 -173 40 -112 59 -154 63 -140 4 11 30 88 59
170 l52 150 55 0 54 0 0 -320 0 -320 -57 -3 -58 -3 -1 148 0 148 -33 -90 -32
-90 -45 -3 -45 -3 -29 93 -30 92 -5 -144 -5 -145 -57 -3 -58 -3 0 326 0 325
49 0 c29 0 53 -5 58 -12z m705 -12 c46 -22 68 -55 77 -115 9 -58 -4 -119 -31
-148 l-21 -23 21 -22 c68 -73 51 -232 -31 -292 -24 -18 -46 -21 -153 -24
l-124 -4 0 327 0 327 113 -4 c81 -3 122 -9 149 -22z m286 -238 l2 -257 103 -3
102 -3 0 -60 0 -60 -160 0 -160 0 -3 310 c-1 170 0 316 3 323 3 9 21 12 57 10
l53 -3 3 -257z m530 200 l-3 -63 -57 -3 -58 -3 0 -259 0 -260 -54 0 c-40 0
-55 4 -60 16 -3 9 -6 125 -6 259 l0 244 -52 3 -53 3 -3 63 -3 62 176 0 176 0
-3 -62z m-1088 -1313 l0 -565 -110 0 -110 0 0 430 c0 237 -3 430 -6 430 -5 0
-44 -28 -141 -103 -10 -7 -13 17 -13 116 l0 125 88 66 87 65 103 0 102 1 0
-565z m840 561 c0 -3 -165 -395 -186 -442 -4 -8 17 -13 60 -16 74 -4 105 -22
148 -84 42 -59 61 -152 55 -259 -7 -117 -30 -185 -84 -245 -59 -66 -111 -85
-234 -85 -86 0 -101 3 -154 30 -110 56 -152 158 -142 345 3 58 12 125 21 149
9 24 73 171 142 327 l126 284 124 0 c68 0 124 -2 124 -4z"/>
<path d="M1162 2078 l3 -63 40 2 c46 3 65 23 65 68 0 42 -16 55 -67 55 l-44 0
3 -62z"/>
<path d="M1160 1826 l0 -76 38 0 c57 0 77 19 77 74 0 55 -11 67 -69 73 l-46 6
0 -77z"/>
<path d="M1591 803 c-45 -38 -48 -218 -4 -250 25 -19 80 -16 102 6 41 41 42
210 1 243 -28 23 -72 23 -99 1z"/>
</g>
</svg>
