<svg xmlns="http://www.w3.org/2000/svg" viewBox="0 0 24 24">
  <circle fill="#EF4237" cx="12" cy="12" r="12"/>
  <path fill="#FFF" d="M17.481 9.187c.005.123.008.243.008.367 0 3.738-2.844 8.049-8.046 8.049-1.599 0-3.087-.47-4.34-1.271.222.026.447.039.676.039 1.328 0 2.547-.453 3.514-1.21-1.238-.024-2.282-.841-2.643-1.966.174.033.352.051.531.051.26 0 .509-.033.745-.1-1.292-.259-2.268-1.401-2.268-2.773v-.035c.382.212.816.338 1.283.354-.761-.508-1.259-1.374-1.259-2.356 0-.516.142-1.003.383-1.422 1.397 1.712 3.48 2.839 5.831 2.957-.049-.209-.072-.425-.072-.646 0-1.561 1.267-2.829 2.829-2.829.815 0 1.547.343 2.063.895.646-.128 1.252-.363 1.797-.687-.211.661-.66 1.217-1.243 1.564.571-.068 1.116-.221 1.624-.445-.382.568-.859 1.065-1.413 1.464z"/>
</svg>
