<svg xmlns="http://www.w3.org/2000/svg" viewBox="0 0 24 24">
  <path fill="#FFF" d="M3 6h18v12H3z"/>
  <path fill="#EF4237" d="M12 0C5.371 0 0 5.373 0 12s5.371 12 12 12c6.627 0 12-5.373 12-12S18.627 0 12 0zm5.879 13.225c1.01.922 1.713 1.673 2.111 2.253.187.29.244.545.178.769-.064.225-.219.337-.457.337l-2.627.119c-.373.026-.824-.198-1.356-.672-.531-.474-.89-.869-1.075-1.186-.107-.184-.299-.29-.577-.316-.279-.026-.46.105-.54.396l-.079 1.027c-.026.21-.106.369-.237.475-.133.105-.246.165-.34.179-.094.012-.246.032-.459.059-.689.026-1.293-.008-1.812-.099-.519-.094-.989-.284-1.414-.574-.425-.289-.763-.554-1.016-.79s-.617-.619-1.097-1.146c-1.299-1.844-2.27-3.438-2.907-4.781-.239-.53-.372-.977-.4-1.345.105-.105.307-.172.6-.198.291-.026.717-.033 1.273-.021.559.015.89.021.997.021.266-.027.478.118.638.435.662 1.475 1.314 2.62 1.951 3.437.424.396.704.33.836-.198.055 0 .08-.645.08-1.935.025-.818-.306-1.33-.996-1.541.159-.422.717-.633 1.674-.633.238 0 .53.013.875.039.346.026.531.039.559.039.797 0 1.195.316 1.195.949-.001.079-.013.27-.039.573-.026.303-.049.593-.061.869-.013.278-.02.567-.02.871 0 .303.04.559.119.77.078.21.186.344.32.396.145-.105.284-.204.417-.296.133-.093.272-.244.418-.455.147-.21.259-.369.339-.475.079-.105.199-.302.359-.592.158-.29.252-.475.277-.554.027-.079.119-.282.279-.612s.238-.494.238-.494l.061-.119c.107-.236.192-.375.26-.415.065-.038.232-.059.497-.059h2.471c.292 0 .465.006.518.021.053.012.132.072.237.178.188.237.02.751-.498 1.541-.518.789-1.016 1.448-1.492 1.976-.663.737-.756 1.328-.278 1.777z"/>
</svg>
